<svg xmlns="http://www.w3.org/2000/svg" version="1.1" xmlns:xlink="http://www.w3.org/1999/xlink" width="200" height="200"><svg xmlns="http://www.w3.org/2000/svg" version="1.1" xmlns:xlink="http://www.w3.org/1999/xlink" viewBox="0 0 200 200"><rect width="200" height="200" fill="url('#gradient')"></rect><defs><linearGradient id="SvgjsLinearGradient1011" gradientTransform="rotate(45 0.5 0.5)"><stop offset="0%" stop-color="#ff770f"></stop><stop offset="100%" stop-color="#000000"></stop></linearGradient></defs><g><g fill="#ffffff" transform="matrix(3.2013163307280954,0,0,3.2013163307280954,20.707770054686563,122.44294568257585)" stroke="#000000" stroke-width="0.2"><path d="M8.80-14.22L12.23-14.22L12.23-4.91Q12.23-3.33 11.55-2.17Q10.88-1.02 9.62-0.41Q8.36 0.20 6.64 0.20L6.64 0.20Q4.04 0.20 2.55-1.15Q1.05-2.50 1.03-4.84L1.03-4.84L1.03-14.22L4.47-14.22L4.47-4.78Q4.53-2.44 6.64-2.44L6.64-2.44Q7.71-2.44 8.25-3.03Q8.80-3.61 8.80-4.93L8.80-4.93L8.80-14.22ZM14.24-10.57L17.32-10.57L17.43-9.33Q18.55-10.76 20.45-10.76L20.45-10.76Q22.45-10.76 23.15-9.17L23.15-9.17Q24.23-10.76 26.26-10.76L26.26-10.76Q29.47-10.76 29.56-6.88L29.56-6.88L29.56 0L26.26 0L26.26-6.67Q26.26-7.48 25.99-7.85Q25.71-8.22 24.99-8.22L24.99-8.22Q24.01-8.22 23.54-7.35L23.54-7.35L23.54-7.22L23.54 0L20.24 0L20.24-6.65Q20.24-7.48 19.98-7.85Q19.72-8.22 18.97-8.22L18.97-8.22Q18.03-8.22 17.53-7.35L17.53-7.35L17.53 0L14.24 0L14.24-10.57ZM40.68 0L37.39 0Q37.22-0.32 37.08-0.95L37.08-0.95Q36.17 0.20 34.54 0.20L34.54 0.20Q33.05 0.20 32.00-0.71Q30.96-1.61 30.96-2.98L30.96-2.98Q30.96-4.70 32.23-5.58Q33.50-6.46 35.92-6.46L35.92-6.46L36.93-6.46L36.93-7.01Q36.93-8.47 35.67-8.47L35.67-8.47Q34.50-8.47 34.50-7.31L34.50-7.31L31.21-7.31Q31.21-8.85 32.51-9.80Q33.82-10.76 35.84-10.76Q37.86-10.76 39.03-9.78Q40.21-8.79 40.23-7.07L40.23-7.07L40.23-2.39Q40.25-0.94 40.68-0.17L40.68-0.17L40.68 0ZM35.33-2.15L35.33-2.15Q35.95-2.15 36.35-2.41Q36.76-2.68 36.93-3.01L36.93-3.01L36.93-4.70L35.98-4.70Q34.26-4.70 34.26-3.15L34.26-3.15Q34.26-2.71 34.56-2.43Q34.86-2.15 35.33-2.15ZM48.51-10.64L48.45-7.59L47.36-7.67Q45.81-7.67 45.37-6.69L45.37-6.69L45.37 0L42.08 0L42.08-10.57L45.17-10.57L45.27-9.21Q46.10-10.76 47.59-10.76L47.59-10.76Q48.12-10.76 48.51-10.64L48.51-10.64Z"></path></g></g></svg><style>@media (prefers-color-scheme: light) { :root { filter: none; } }
@media (prefers-color-scheme: dark) { :root { filter: none; } }
</style></svg>